<svg width="43" height="36" viewBox="0 0 43 36" fill="none" xmlns="http://www.w3.org/2000/svg">
<g clip-path="url(#clip0_1_62)">
<path d="M23.3218 32.09H19.6782C19.5159 32.09 19.3601 32.0266 19.2453 31.9138C19.1305 31.801 19.066 31.6479 19.066 31.4884V2.42949C19.066 1.79506 19.3225 1.18661 19.7789 0.737995C20.2354 0.289382 20.8545 0.0373535 21.5 0.0373535C22.1456 0.0373535 22.7646 0.289382 23.2211 0.737995C23.6776 1.18661 23.934 1.79506 23.934 2.42949V31.489C23.9338 31.6484 23.8693 31.8013 23.7545 31.914C23.6397 32.0267 23.4841 32.09 23.3218 32.09V32.09ZM20.2904 30.8867H22.7097V2.42949C22.7097 2.11419 22.5822 1.8118 22.3554 1.58885C22.1285 1.3659 21.8208 1.24064 21.5 1.24064C21.1792 1.24064 20.8715 1.3659 20.6447 1.58885C20.4178 1.8118 20.2904 2.11419 20.2904 2.42949V30.8867Z" fill="#295C7A"/>
<path d="M6.74675 8.10299H4.64518C4.14656 8.0942 3.67139 7.89336 3.32194 7.5437C2.97249 7.19404 2.77669 6.7235 2.77669 6.23338C2.77669 5.74326 2.97249 5.27273 3.32194 4.92307C3.67139 4.5734 4.14656 4.37256 4.64518 4.36377H6.44863C6.61098 4.36377 6.76669 4.42716 6.88149 4.53999C6.9963 4.65282 7.06079 4.80585 7.06079 4.96541C7.06079 5.12498 6.9963 5.27801 6.88149 5.39084C6.76669 5.50367 6.61098 5.56706 6.44863 5.56706H4.64518C4.46889 5.57227 4.30161 5.64475 4.17879 5.76914C4.05596 5.89353 3.98727 6.06005 3.98727 6.23338C3.98727 6.40671 4.05596 6.57323 4.17879 6.69762C4.30161 6.82201 4.46889 6.8945 4.64518 6.8997H6.74675C6.90911 6.8997 7.06482 6.96309 7.17962 7.07592C7.29442 7.18875 7.35892 7.34178 7.35892 7.50135C7.35892 7.66091 7.29442 7.81395 7.17962 7.92678C7.06482 8.03961 6.90911 8.10299 6.74675 8.10299Z" fill="#295C7A"/>
<path d="M19.6782 8.10299H10.4497C10.2874 8.10299 10.1317 8.03961 10.0169 7.92678C9.90207 7.81395 9.83758 7.66091 9.83758 7.50135C9.83758 7.34178 9.90207 7.18875 10.0169 7.07592C10.1317 6.96309 10.2874 6.8997 10.4497 6.8997H19.066V5.56706H10.7473C10.5849 5.56706 10.4292 5.50367 10.3144 5.39084C10.1996 5.27801 10.1351 5.12498 10.1351 4.96541C10.1351 4.80585 10.1996 4.65282 10.3144 4.53999C10.4292 4.42716 10.5849 4.36377 10.7473 4.36377H19.6782C19.8405 4.36377 19.9962 4.42716 20.111 4.53999C20.2258 4.65282 20.2903 4.80585 20.2903 4.96541V7.50135C20.2903 7.66091 20.2258 7.81395 20.111 7.92678C19.9962 8.03961 19.8405 8.10299 19.6782 8.10299Z" fill="#295C7A"/>
<path d="M32.4168 8.10299H23.3218C23.1595 8.10299 23.0038 8.03961 22.889 7.92678C22.7742 7.81395 22.7097 7.66091 22.7097 7.50135V4.96541C22.7097 4.80585 22.7742 4.65282 22.889 4.53999C23.0038 4.42716 23.1595 4.36377 23.3218 4.36377H32.1193C32.2817 4.36377 32.4374 4.42716 32.5522 4.53999C32.667 4.65282 32.7315 4.80585 32.7315 4.96541C32.7315 5.12498 32.667 5.27801 32.5522 5.39084C32.4374 5.50367 32.2817 5.56706 32.1193 5.56706H23.934V6.8997H32.4168C32.5792 6.8997 32.7349 6.96309 32.8497 7.07592C32.9645 7.18875 33.029 7.34178 33.029 7.50135C33.029 7.66091 32.9645 7.81395 32.8497 7.92678C32.7349 8.03961 32.5792 8.10299 32.4168 8.10299Z" fill="#295C7A"/>
<path d="M38.3487 8.10299H36.2533C36.0909 8.10299 35.9352 8.03961 35.8204 7.92678C35.7056 7.81395 35.6411 7.66091 35.6411 7.50135C35.6411 7.34178 35.7056 7.18875 35.8204 7.07592C35.9352 6.96309 36.0909 6.8997 36.2533 6.8997H38.3487C38.525 6.8945 38.6923 6.82201 38.8151 6.69762C38.9379 6.57323 39.0066 6.40671 39.0066 6.23338C39.0066 6.06005 38.9379 5.89353 38.8151 5.76914C38.6923 5.64475 38.525 5.57227 38.3487 5.56706H36.555C36.3927 5.56706 36.237 5.50367 36.1222 5.39084C36.0074 5.27801 35.9429 5.12498 35.9429 4.96541C35.9429 4.80585 36.0074 4.65282 36.1222 4.53999C36.237 4.42716 36.3927 4.36377 36.555 4.36377H38.3487C38.8473 4.37256 39.3225 4.5734 39.6719 4.92307C40.0214 5.27273 40.2172 5.74326 40.2172 6.23338C40.2172 6.7235 40.0214 7.19404 39.6719 7.5437C39.3225 7.89336 38.8473 8.0942 38.3487 8.10299Z" fill="#295C7A"/>
<path d="M29.2531 35.9623H13.7469C13.654 35.9622 13.5623 35.9414 13.4788 35.9013C13.3953 35.8613 13.3221 35.8031 13.2649 35.7311C13.2077 35.6592 13.1679 35.5754 13.1485 35.486C13.1291 35.3967 13.1307 35.3043 13.1531 35.2156C13.4055 34.0258 14.0555 32.9531 14.9997 32.1681C15.9439 31.3832 17.1281 30.9311 18.3639 30.8838H24.6361C25.8719 30.9311 27.0561 31.3832 28.0003 32.1681C28.9445 32.9531 29.5945 34.0258 29.8469 35.2156C29.8693 35.3043 29.8709 35.3967 29.8515 35.486C29.8321 35.5754 29.7923 35.6592 29.7351 35.7311C29.6779 35.8031 29.6047 35.8613 29.5212 35.9013C29.4377 35.9414 29.346 35.9622 29.2531 35.9623V35.9623ZM14.5935 34.759H28.4065C28.1151 33.9988 27.6019 33.34 26.9312 32.8653C26.2605 32.3905 25.4621 32.1208 24.6361 32.0901H18.3639C17.5379 32.1208 16.7395 32.3905 16.0688 32.8653C15.3981 33.34 14.8849 33.9988 14.5935 34.759Z" fill="#295C7A"/>
<path d="M30.9108 35.9621H12.0891C11.9268 35.9621 11.7711 35.8987 11.6563 35.7859C11.5415 35.673 11.477 35.52 11.477 35.3604C11.477 35.2009 11.5415 35.0478 11.6563 34.935C11.7711 34.8222 11.9268 34.7588 12.0891 34.7588H30.9108C31.0732 34.7588 31.2289 34.8222 31.3437 34.935C31.4585 35.0478 31.523 35.2009 31.523 35.3604C31.523 35.52 31.4585 35.673 31.3437 35.7859C31.2289 35.8987 31.0732 35.9621 30.9108 35.9621Z" fill="#295C7A"/>
<path d="M42.3137 23.1886H26.4947C26.3922 23.1886 26.2913 23.1634 26.2013 23.1153C26.1113 23.0671 26.0351 22.9974 25.9796 22.9128C25.9241 22.8281 25.8911 22.7311 25.8837 22.6307C25.8762 22.5302 25.8945 22.4295 25.937 22.3378L32.6586 7.7937C32.6917 7.72154 32.7389 7.65652 32.7977 7.60234C32.8564 7.54817 32.9254 7.50592 33.0007 7.478C33.0761 7.45008 33.1563 7.43705 33.2368 7.43966C33.3173 7.44226 33.3965 7.46045 33.4698 7.49318C33.5431 7.5259 33.6091 7.57253 33.6641 7.63038C33.7191 7.68823 33.7619 7.75617 33.7901 7.83031C33.8183 7.90445 33.8313 7.98332 33.8284 8.06242C33.8256 8.14152 33.8068 8.21928 33.7733 8.29126L27.4447 21.9853H41.3612L35.0381 8.29126C35.0049 8.21928 34.9864 8.14158 34.9838 8.06259C34.9811 7.98361 34.9943 7.90488 35.0226 7.83091C35.051 7.75694 35.0938 7.68918 35.1488 7.63149C35.2037 7.5738 35.2697 7.52731 35.3429 7.49468C35.4162 7.46205 35.4952 7.44391 35.5756 7.44131C35.656 7.43871 35.7361 7.45169 35.8113 7.47951C35.8866 7.50733 35.9555 7.54945 36.0142 7.60346C36.0729 7.65747 36.1202 7.72232 36.1534 7.7943L42.8683 22.3385C42.9105 22.4299 42.9287 22.5302 42.9214 22.6303C42.914 22.7305 42.8813 22.8272 42.8261 22.9117C42.771 22.9962 42.6952 23.0658 42.6057 23.1142C42.5162 23.1625 42.4158 23.1881 42.3137 23.1886V23.1886Z" fill="#295C7A"/>
<path d="M34.4669 30.8625H34.3396C29.438 30.8625 25.88 27.3826 25.88 22.5875C25.88 22.4279 25.9445 22.2749 26.0593 22.1621C26.1741 22.0492 26.3299 21.9858 26.4922 21.9858H42.3137C42.476 21.9858 42.6317 22.0492 42.7465 22.1621C42.8613 22.2749 42.9258 22.4279 42.9258 22.5875C42.9258 27.3856 39.3679 30.8625 34.4669 30.8625ZM27.1258 23.1891C27.3988 27.0288 30.2876 29.6592 34.3396 29.6592H34.4669C38.5182 29.6592 41.4077 27.0288 41.6801 23.1891H27.1258Z" fill="#295C7A"/>
<path d="M34.4032 8.96103C33.808 8.96115 33.2261 8.78777 32.7311 8.46282C32.2361 8.13787 31.8503 7.67595 31.6224 7.13548C31.3946 6.59501 31.3349 6.00026 31.451 5.42647C31.5671 4.85268 31.8537 4.32562 32.2747 3.91194C32.6956 3.49827 33.2318 3.21656 33.8157 3.10246C34.3995 2.98835 35.0046 3.04698 35.5546 3.27091C36.1045 3.49485 36.5745 3.87403 36.9051 4.36051C37.2357 4.847 37.4122 5.41892 37.412 6.00394C37.4111 6.78792 37.0938 7.53951 36.5297 8.09386C35.9657 8.64822 35.2009 8.96007 34.4032 8.96103V8.96103ZM34.4032 4.24955C34.0502 4.24943 33.705 4.35222 33.4113 4.54492C33.1177 4.73763 32.8888 5.01158 32.7536 5.33215C32.6184 5.65271 32.583 6.00548 32.6518 6.34584C32.7206 6.6862 32.8906 6.99886 33.1402 7.24428C33.3898 7.48969 33.7079 7.65684 34.0542 7.72459C34.4004 7.79233 34.7594 7.75762 35.0856 7.62485C35.4118 7.49208 35.6906 7.26722 35.8868 6.9787C36.083 6.69018 36.1877 6.35096 36.1877 6.00394C36.1872 5.5389 35.9991 5.09303 35.6645 4.76414C35.33 4.43525 34.8764 4.25018 34.4032 4.24955Z" fill="#295C7A"/>
<path d="M16.5047 23.1887H0.686316C0.58389 23.1887 0.483108 23.1634 0.393202 23.1152C0.303296 23.067 0.22714 22.9973 0.171709 22.9127C0.116278 22.828 0.0833452 22.7311 0.0759261 22.6307C0.068507 22.5303 0.0868392 22.4296 0.129244 22.338L6.85207 7.79386C6.9192 7.64849 7.04234 7.53529 7.1944 7.47916C7.34646 7.42303 7.51498 7.42856 7.66288 7.49454C7.81079 7.56052 7.92597 7.68154 7.98309 7.83099C8.0402 7.98043 8.03457 8.14605 7.96744 8.29142L1.63885 21.9854H15.5553L9.23218 8.29142C9.19702 8.21921 9.17687 8.14084 9.17292 8.06088C9.16897 7.98093 9.18129 7.90101 9.20917 7.82579C9.23704 7.75058 9.27991 7.68159 9.33526 7.62286C9.3906 7.56413 9.45732 7.51685 9.53149 7.48379C9.60566 7.45072 9.68581 7.43253 9.76722 7.43029C9.84864 7.42805 9.92969 7.4418 10.0056 7.47073C10.0816 7.49966 10.1509 7.5432 10.2095 7.59879C10.2681 7.65437 10.3148 7.7209 10.3469 7.79446L17.0624 22.3386C17.1047 22.4303 17.1229 22.5309 17.1154 22.6312C17.1079 22.7316 17.0749 22.8285 17.0194 22.9131C16.9639 22.9977 16.8877 23.0672 16.7978 23.1154C16.7079 23.1635 16.6071 23.1888 16.5047 23.1887V23.1887Z" fill="#295C7A"/>
<path d="M8.6604 30.8625H8.53307C3.63205 30.8625 0.0741348 27.3856 0.0741348 22.5875C0.0741348 22.4279 0.138631 22.2749 0.253435 22.1621C0.368238 22.0492 0.523946 21.9858 0.686303 21.9858H16.5078C16.6701 21.9858 16.8258 22.0492 16.9406 22.1621C17.0555 22.2749 17.1199 22.4279 17.1199 22.5875C17.1199 27.3856 13.562 30.8625 8.6604 30.8625V30.8625ZM1.3199 23.1891C1.59231 27.0288 4.48174 29.6592 8.53307 29.6592H8.6604C12.7123 29.6592 15.6012 27.0288 15.8742 23.1891H1.3199Z" fill="#295C7A"/>
<path d="M8.59674 8.96103C8.00151 8.96103 7.41965 8.78755 6.92474 8.46253C6.42983 8.13751 6.0441 7.67554 5.81635 7.13506C5.58859 6.59458 5.52903 5.99986 5.6452 5.42611C5.76137 4.85235 6.04805 4.32535 6.46898 3.91173C6.88992 3.49811 7.4262 3.21647 8.01001 3.10241C8.59382 2.98836 9.19893 3.04702 9.74882 3.27097C10.2987 3.49492 10.7687 3.87411 11.0993 4.36058C11.4299 4.84705 11.6063 5.41894 11.6062 6.00394C11.6052 6.78802 11.2878 7.5397 10.7236 8.09408C10.1594 8.64845 9.39454 8.96023 8.59674 8.96103V8.96103ZM8.59674 4.24955C8.24369 4.24955 7.89856 4.35244 7.60501 4.54522C7.31145 4.73799 7.08265 5.01199 6.94754 5.33257C6.81244 5.65314 6.77708 6.00589 6.84596 6.34621C6.91484 6.68653 7.08485 6.99913 7.3345 7.24449C7.58415 7.48985 7.90222 7.65694 8.24849 7.72463C8.59476 7.79232 8.95368 7.75758 9.27987 7.6248C9.60605 7.49201 9.88484 7.26714 10.081 6.97864C10.2771 6.69013 10.3818 6.35093 10.3818 6.00394C10.3813 5.5388 10.1931 5.09284 9.85845 4.76393C9.52379 4.43502 9.07003 4.25003 8.59674 4.24955V4.24955Z" fill="#295C7A"/>
</g>
<defs>
<clipPath id="clip0_1_62">
<rect width="43" height="36" fill="white"/>
</clipPath>
</defs>
</svg>
