<svg width="49" height="48" viewBox="0 0 49 48" fill="none" xmlns="http://www.w3.org/2000/svg">
<g clip-path="url(#clip0_1_175)">
<path d="M13.1214 16.9828C12.7863 16.6477 12.2414 16.6477 11.9063 16.9828C11.5703 17.3188 11.5703 17.8628 11.9063 18.198C12.2415 18.534 12.7863 18.534 13.1214 18.198C13.4573 17.8628 13.4573 17.3188 13.1214 16.9828Z" fill="#D0A144"/>
<path d="M24.7593 40.4757C25.1382 39.9625 25.343 39.3442 25.343 38.6941C25.343 37.0356 23.9938 35.6863 22.3353 35.6863H7.72639C6.92262 35.6863 6.16731 35.9992 5.59952 36.5671C5.03148 37.135 4.71866 37.8903 4.71866 38.6941C4.71866 39.36 4.9366 39.9758 5.30433 40.4747C3.93595 41.1942 3 42.6293 3 44.2797V45.1391C3 45.6138 3.38483 45.9985 3.85938 45.9985H26.2023C26.6768 45.9985 27.0616 45.6138 27.0616 45.1391V44.2797C27.0616 42.6301 26.1266 41.1955 24.7593 40.4757ZM6.81477 37.7823C7.05805 37.5389 7.38187 37.4049 7.72639 37.4049H22.3353C23.046 37.4049 23.6242 37.9832 23.6242 38.6939C23.6242 39.0385 23.4902 39.3622 23.2468 39.6056C23.0035 39.849 22.6797 39.983 22.3352 39.983H7.72639C7.0156 39.983 6.43741 39.4047 6.43741 38.694C6.43741 38.3495 6.57139 38.0256 6.81477 37.7823ZM4.71866 44.2797C4.71866 42.8583 5.87521 41.7017 7.2967 41.7017H7.72639H22.3353H22.7649C24.1864 41.7017 25.343 42.8583 25.343 44.2797H4.71866Z" fill="#D0A144"/>
<path d="M46.2002 38.1044C45.9083 37.6522 45.5601 37.2522 45.1651 36.9157L41.1496 33.4135C41.1183 33.3664 41.0821 33.3217 41.0406 33.2802C40.9708 33.2105 40.8917 33.1561 40.8077 33.1153L38.3793 30.9974L27.1396 21.1927C27.5997 20.7117 27.853 20.0827 27.853 19.4139C27.853 18.7248 27.5848 18.0773 27.0973 17.5899C26.8847 17.3775 26.643 17.2105 26.3848 17.0883L27.4246 16.0484C27.7153 16.1257 28.0139 16.1652 28.3128 16.1652C29.1929 16.1651 30.0731 15.8301 30.743 15.1602C31.3925 14.5107 31.7502 13.6475 31.7502 12.7294C31.7502 11.8113 31.3925 10.9481 30.7431 10.2987L23.4515 3.00722C22.8021 2.35779 21.9387 2.00012 21.0204 2.00012C20.1025 2.00012 19.2394 2.35779 18.5901 3.00722C17.6926 3.90475 17.3971 5.17912 17.7018 6.3257L7.32704 16.7004C7.04035 16.6242 6.74206 16.584 6.43732 16.584C5.51882 16.584 4.65593 16.9414 4.00701 17.5902C2.66673 18.9305 2.66673 21.1113 4.00701 22.4517L11.2986 29.7433C11.9688 30.4135 12.849 30.7485 13.7293 30.7485C14.6096 30.7485 15.4899 30.4135 16.1601 29.7433C17.0577 28.8457 17.3531 27.5714 17.0484 26.4248L18.0861 25.3871C18.2108 25.6475 18.38 25.8877 18.5902 26.0979C19.0771 26.5848 19.7245 26.853 20.4133 26.853C21.0815 26.853 21.7102 26.6001 22.1919 26.1405L34.1635 39.8951C34.1965 39.9467 34.235 39.9958 34.28 40.0408C34.2954 40.0562 34.3118 40.0702 34.328 40.0841L37.8953 44.1828C37.984 44.2875 38.0788 44.3904 38.1772 44.4888C39.157 45.4683 40.4511 45.9998 41.8098 45.9998C42.0493 45.9998 42.2911 45.9833 42.5331 45.9498C44.1513 45.7258 45.5497 44.7578 46.3697 43.2936C47.268 41.6889 47.2012 39.6516 46.2002 38.1044ZM19.8055 4.22255C20.1303 3.89779 20.5618 3.71887 21.0205 3.71887C21.4797 3.71887 21.9116 3.89779 22.2362 4.22255L29.5279 11.5141C29.8526 11.8388 30.0315 12.2705 30.0315 12.7295C30.0315 13.1885 29.8526 13.6202 29.5278 13.9449C28.8579 14.615 27.7677 14.615 27.0978 13.9449L19.8059 6.65304C19.8058 6.65286 19.8057 6.65278 19.8055 6.65261C19.1354 5.98264 19.1354 4.89252 19.8055 4.22255ZM14.9448 28.528C14.2747 29.1981 13.184 29.1982 12.5139 28.528L5.22234 21.2365C4.55211 20.5662 4.55211 19.4759 5.22234 18.8055C5.5465 18.4813 5.97807 18.3027 6.43732 18.3027C6.89649 18.3027 7.32781 18.4812 7.65188 18.8052L14.9447 26.098C15.6148 26.7679 15.6148 27.8581 14.9448 28.528ZM18.5629 22.4797L16.16 24.8827L8.86772 17.5904L18.5901 7.86785L25.8823 15.1602L23.475 17.5675C23.4672 17.5749 23.4596 17.5821 23.4513 17.5903L18.5926 22.4491C18.5825 22.459 18.5728 22.4693 18.5629 22.4797ZM21.6314 24.2725C21.6297 24.2742 21.6281 24.2758 21.6263 24.2775L21.0212 24.8827C20.8588 25.0449 20.6431 25.1343 20.4133 25.1343C20.1835 25.1343 19.9677 25.0449 19.8054 24.8826C19.6429 24.7202 19.5534 24.5041 19.5534 24.2743C19.5534 24.0493 19.6393 23.8376 19.7951 23.6779L24.6764 18.7966C25.011 18.4712 25.5519 18.4753 25.8825 18.8055C26.0449 18.968 26.1344 19.184 26.1344 19.4139C26.1344 19.6436 26.0452 19.8591 25.8824 20.0214L25.2808 20.623C25.2766 20.6271 25.2725 20.6312 25.2685 20.6353L21.6314 24.2725ZM23.411 24.9234L25.9226 22.4118L36.5567 31.6875L32.6763 35.568L23.411 24.9234ZM33.8073 36.8675L37.8549 32.8199L39.1531 33.9523L34.9383 38.1672L33.8073 36.8675ZM44.8702 42.454C44.3156 43.4443 43.3779 44.0978 42.2976 44.2473C41.2198 44.3965 40.1607 44.0415 39.3923 43.2734C39.3262 43.2074 39.263 43.1386 39.204 43.0688C39.2013 43.0655 39.1985 43.0623 39.1957 43.0591L36.0693 39.4667L40.4513 35.0846L44.0392 38.2142C44.0419 38.2166 44.0446 38.2189 44.0474 38.2213C44.316 38.4497 44.5543 38.7239 44.7565 39.0372C45.4064 40.0414 45.4519 41.4147 44.8702 42.454Z" fill="#D0A144"/>
<path d="M19.1979 10.9062C18.8622 10.5706 18.3182 10.5706 17.9825 10.9062L14.3364 14.5523C14.0008 14.8879 14.0008 15.4321 14.3364 15.7676C14.5042 15.9354 14.7241 16.0193 14.944 16.0193C15.164 16.0193 15.3839 15.9353 15.5517 15.7676L19.1979 12.1214C19.5334 11.7859 19.5334 11.2418 19.1979 10.9062Z" fill="#D0A144"/>
</g>
<defs>
<clipPath id="clip0_1_175">
<rect width="44" height="44" fill="white" transform="translate(3 2)"/>
</clipPath>
</defs>
</svg>
