<svg width="49" height="48" viewBox="0 0 49 48" fill="none" xmlns="http://www.w3.org/2000/svg">
<g clip-path="url(#clip0_1_155)">
<path d="M26.3218 38.0899H22.6782C22.5159 38.0899 22.3601 38.0266 22.2453 37.9137C22.1305 37.8009 22.066 37.6479 22.066 37.4883V8.42943C22.066 7.795 22.3225 7.18655 22.7789 6.73793C23.2354 6.28932 23.8545 6.03729 24.5 6.03729C25.1456 6.03729 25.7646 6.28932 26.2211 6.73793C26.6776 7.18655 26.934 7.795 26.934 8.42943V37.4889C26.9338 37.6484 26.8693 37.8012 26.7545 37.9139C26.6397 38.0266 26.4841 38.0899 26.3218 38.0899V38.0899ZM23.2904 36.8866H25.7097V8.42943C25.7097 8.11413 25.5822 7.81174 25.3554 7.58879C25.1285 7.36584 24.8208 7.24058 24.5 7.24058C24.1792 7.24058 23.8715 7.36584 23.6447 7.58879C23.4178 7.81174 23.2904 8.11413 23.2904 8.42943V36.8866Z" fill="#D0A144"/>
<path d="M9.74675 14.103H7.64518C7.14656 14.0942 6.67139 13.8934 6.32194 13.5437C5.97249 13.194 5.77669 12.7235 5.77669 12.2334C5.77669 11.7433 5.97249 11.2727 6.32194 10.9231C6.67139 10.5734 7.14656 10.3726 7.64518 10.3638H9.44863C9.61098 10.3638 9.76669 10.4272 9.88149 10.54C9.9963 10.6528 10.0608 10.8058 10.0608 10.9654C10.0608 11.125 9.9963 11.278 9.88149 11.3908C9.76669 11.5037 9.61098 11.5671 9.44863 11.5671H7.64518C7.46889 11.5723 7.30161 11.6448 7.17879 11.7691C7.05596 11.8935 6.98727 12.06 6.98727 12.2334C6.98727 12.4067 7.05596 12.5732 7.17879 12.6976C7.30161 12.822 7.46889 12.8945 7.64518 12.8997H9.74675C9.90911 12.8997 10.0648 12.9631 10.1796 13.0759C10.2944 13.1888 10.3589 13.3418 10.3589 13.5013C10.3589 13.6609 10.2944 13.8139 10.1796 13.9268C10.0648 14.0396 9.90911 14.103 9.74675 14.103Z" fill="#D0A144"/>
<path d="M22.6782 14.103H13.4497C13.2874 14.103 13.1317 14.0396 13.0169 13.9268C12.9021 13.8139 12.8376 13.6609 12.8376 13.5013C12.8376 13.3418 12.9021 13.1888 13.0169 13.0759C13.1317 12.9631 13.2874 12.8997 13.4497 12.8997H22.066V11.5671H13.7473C13.5849 11.5671 13.4292 11.5037 13.3144 11.3908C13.1996 11.278 13.1351 11.125 13.1351 10.9654C13.1351 10.8058 13.1996 10.6528 13.3144 10.54C13.4292 10.4272 13.5849 10.3638 13.7473 10.3638H22.6782C22.8405 10.3638 22.9962 10.4272 23.111 10.54C23.2258 10.6528 23.2903 10.8058 23.2903 10.9654V13.5013C23.2903 13.6609 23.2258 13.8139 23.111 13.9268C22.9962 14.0396 22.8405 14.103 22.6782 14.103Z" fill="#D0A144"/>
<path d="M35.4168 14.103H26.3218C26.1595 14.103 26.0038 14.0396 25.889 13.9268C25.7742 13.8139 25.7097 13.6609 25.7097 13.5013V10.9654C25.7097 10.8058 25.7742 10.6528 25.889 10.54C26.0038 10.4272 26.1595 10.3638 26.3218 10.3638H35.1193C35.2817 10.3638 35.4374 10.4272 35.5522 10.54C35.667 10.6528 35.7315 10.8058 35.7315 10.9654C35.7315 11.125 35.667 11.278 35.5522 11.3908C35.4374 11.5037 35.2817 11.5671 35.1193 11.5671H26.934V12.8997H35.4168C35.5792 12.8997 35.7349 12.9631 35.8497 13.0759C35.9645 13.1888 36.029 13.3418 36.029 13.5013C36.029 13.6609 35.9645 13.8139 35.8497 13.9268C35.7349 14.0396 35.5792 14.103 35.4168 14.103Z" fill="#D0A144"/>
<path d="M41.3487 14.103H39.2533C39.0909 14.103 38.9352 14.0396 38.8204 13.9268C38.7056 13.8139 38.6411 13.6609 38.6411 13.5013C38.6411 13.3418 38.7056 13.1888 38.8204 13.0759C38.9352 12.9631 39.0909 12.8997 39.2533 12.8997H41.3487C41.525 12.8945 41.6923 12.822 41.8151 12.6976C41.9379 12.5732 42.0066 12.4067 42.0066 12.2334C42.0066 12.06 41.9379 11.8935 41.8151 11.7691C41.6923 11.6448 41.525 11.5723 41.3487 11.5671H39.555C39.3927 11.5671 39.237 11.5037 39.1222 11.3908C39.0074 11.278 38.9429 11.125 38.9429 10.9654C38.9429 10.8058 39.0074 10.6528 39.1222 10.54C39.237 10.4272 39.3927 10.3638 39.555 10.3638H41.3487C41.8473 10.3726 42.3225 10.5734 42.6719 10.9231C43.0214 11.2727 43.2172 11.7433 43.2172 12.2334C43.2172 12.7235 43.0214 13.194 42.6719 13.5437C42.3225 13.8934 41.8473 14.0942 41.3487 14.103Z" fill="#D0A144"/>
<path d="M32.2531 41.9622H16.7469C16.654 41.9622 16.5623 41.9413 16.4788 41.9013C16.3953 41.8612 16.3221 41.803 16.2649 41.7311C16.2077 41.6591 16.1679 41.5753 16.1485 41.486C16.1291 41.3967 16.1307 41.3042 16.1531 41.2156C16.4055 40.0257 17.0555 38.953 17.9997 38.1681C18.9439 37.3831 20.1281 36.931 21.3639 36.8837H27.6361C28.8719 36.931 30.0561 37.3831 31.0003 38.1681C31.9445 38.953 32.5945 40.0257 32.8469 41.2156C32.8693 41.3042 32.8709 41.3967 32.8515 41.486C32.8321 41.5753 32.7923 41.6591 32.7351 41.7311C32.6779 41.803 32.6047 41.8612 32.5212 41.9013C32.4377 41.9413 32.346 41.9622 32.2531 41.9622V41.9622ZM17.5935 40.7589H31.4065C31.1151 39.9987 30.6019 39.34 29.9312 38.8652C29.2605 38.3904 28.4621 38.1208 27.6361 38.09H21.3639C20.5379 38.1208 19.7395 38.3904 19.0688 38.8652C18.3981 39.34 17.8849 39.9987 17.5935 40.7589Z" fill="#D0A144"/>
<path d="M33.9108 41.9621H15.0891C14.9268 41.9621 14.7711 41.8987 14.6563 41.7859C14.5415 41.673 14.477 41.52 14.477 41.3604C14.477 41.2009 14.5415 41.0478 14.6563 40.935C14.7711 40.8222 14.9268 40.7588 15.0891 40.7588H33.9108C34.0732 40.7588 34.2289 40.8222 34.3437 40.935C34.4585 41.0478 34.523 41.2009 34.523 41.3604C34.523 41.52 34.4585 41.673 34.3437 41.7859C34.2289 41.8987 34.0732 41.9621 33.9108 41.9621Z" fill="#D0A144"/>
<path d="M45.3137 29.1886H29.4947C29.3922 29.1886 29.2913 29.1634 29.2013 29.1153C29.1113 29.0671 29.0351 28.9974 28.9796 28.9128C28.9241 28.8281 28.8911 28.7311 28.8837 28.6307C28.8762 28.5302 28.8945 28.4295 28.937 28.3378L35.6586 13.7937C35.6917 13.7215 35.7389 13.6565 35.7977 13.6023C35.8564 13.5482 35.9254 13.5059 36.0007 13.478C36.0761 13.4501 36.1563 13.4371 36.2368 13.4397C36.3173 13.4423 36.3965 13.4604 36.4698 13.4932C36.5431 13.5259 36.6091 13.5725 36.6641 13.6304C36.7191 13.6882 36.7619 13.7562 36.7901 13.8303C36.8183 13.9044 36.8313 13.9833 36.8284 14.0624C36.8256 14.1415 36.8068 14.2193 36.7733 14.2913L30.4447 27.9853H44.3612L38.0381 14.2913C38.0049 14.2193 37.9864 14.1416 37.9838 14.0626C37.9811 13.9836 37.9943 13.9049 38.0226 13.8309C38.051 13.7569 38.0938 13.6892 38.1488 13.6315C38.2037 13.5738 38.2697 13.5273 38.3429 13.4947C38.4162 13.462 38.4952 13.4439 38.5756 13.4413C38.656 13.4387 38.7361 13.4517 38.8113 13.4795C38.8866 13.5073 38.9555 13.5495 39.0142 13.6035C39.0729 13.6575 39.1202 13.7223 39.1534 13.7943L45.8683 28.3385C45.9105 28.4299 45.9287 28.5302 45.9214 28.6303C45.914 28.7305 45.8813 28.8272 45.8261 28.9117C45.771 28.9962 45.6952 29.0658 45.6057 29.1142C45.5162 29.1625 45.4158 29.1881 45.3137 29.1886V29.1886Z" fill="#D0A144"/>
<path d="M37.4669 36.8625H37.3396C32.438 36.8625 28.88 33.3826 28.88 28.5875C28.88 28.4279 28.9445 28.2749 29.0593 28.1621C29.1741 28.0492 29.3298 27.9858 29.4922 27.9858H45.3137C45.476 27.9858 45.6317 28.0492 45.7465 28.1621C45.8613 28.2749 45.9258 28.4279 45.9258 28.5875C45.9258 33.3856 42.3679 36.8625 37.4669 36.8625ZM30.1258 29.1891C30.3988 33.0288 33.2876 35.6592 37.3396 35.6592H37.4669C41.5182 35.6592 44.4077 33.0288 44.6801 29.1891H30.1258Z" fill="#D0A144"/>
<path d="M37.4032 14.961C36.808 14.9611 36.2261 14.7877 35.7311 14.4628C35.2361 14.1378 34.8503 13.6759 34.6224 13.1354C34.3946 12.5949 34.3349 12.0002 34.451 11.4264C34.5671 10.8526 34.8537 10.3256 35.2747 9.91188C35.6956 9.4982 36.2318 9.2165 36.8157 9.1024C37.3995 8.98829 38.0046 9.04692 38.5546 9.27085C39.1045 9.49478 39.5745 9.87397 39.9051 10.3605C40.2357 10.8469 40.4122 11.4189 40.412 12.0039C40.4111 12.7879 40.0938 13.5394 39.5297 14.0938C38.9657 14.6482 38.2009 14.96 37.4032 14.961V14.961ZM37.4032 10.2495C37.0502 10.2494 36.705 10.3522 36.4113 10.5449C36.1177 10.7376 35.8888 11.0115 35.7536 11.3321C35.6184 11.6527 35.583 12.0054 35.6518 12.3458C35.7206 12.6861 35.8906 12.9988 36.1402 13.2442C36.3898 13.4896 36.7079 13.6568 37.0542 13.7245C37.4004 13.7923 37.7594 13.7576 38.0856 13.6248C38.4118 13.492 38.6906 13.2672 38.8868 12.9786C39.083 12.6901 39.1877 12.3509 39.1877 12.0039C39.1872 11.5388 38.9991 11.093 38.6645 10.7641C38.33 10.4352 37.8764 10.2501 37.4032 10.2495Z" fill="#D0A144"/>
<path d="M19.5047 29.1886H3.68632C3.58389 29.1886 3.48311 29.1633 3.3932 29.1151C3.3033 29.0668 3.22714 28.9972 3.17171 28.9126C3.11628 28.8279 3.08335 28.7309 3.07593 28.6305C3.06851 28.5301 3.08684 28.4295 3.12924 28.3379L9.85207 13.7937C9.9192 13.6484 10.0423 13.5352 10.1944 13.479C10.3465 13.4229 10.515 13.4284 10.6629 13.4944C10.8108 13.5604 10.926 13.6814 10.9831 13.8309C11.0402 13.9803 11.0346 14.1459 10.9674 14.2913L4.63885 27.9853H18.5553L12.2322 14.2913C12.197 14.2191 12.1769 14.1407 12.1729 14.0608C12.169 13.9808 12.1813 13.9009 12.2092 13.8257C12.237 13.7505 12.2799 13.6815 12.3353 13.6227C12.3906 13.564 12.4573 13.5167 12.5315 13.4837C12.6057 13.4506 12.6858 13.4324 12.7672 13.4302C12.8486 13.4279 12.9297 13.4417 13.0056 13.4706C13.0816 13.4995 13.1509 13.5431 13.2095 13.5987C13.2681 13.6543 13.3148 13.7208 13.3469 13.7943L20.0624 28.3385C20.1047 28.4301 20.1229 28.5308 20.1154 28.6311C20.1079 28.7315 20.0749 28.8284 20.0194 28.913C19.9639 28.9976 19.8877 29.0671 19.7978 29.1153C19.7079 29.1634 19.6071 29.1886 19.5047 29.1886V29.1886Z" fill="#D0A144"/>
<path d="M11.6604 36.8625H11.5331C6.63205 36.8625 3.07413 33.3856 3.07413 28.5875C3.07413 28.4279 3.13863 28.2749 3.25343 28.1621C3.36824 28.0492 3.52395 27.9858 3.6863 27.9858H19.5078C19.6701 27.9858 19.8258 28.0492 19.9406 28.1621C20.0555 28.2749 20.1199 28.4279 20.1199 28.5875C20.1199 33.3856 16.562 36.8625 11.6604 36.8625V36.8625ZM4.3199 29.1891C4.59231 33.0288 7.48174 35.6592 11.5331 35.6592H11.6604C15.7123 35.6592 18.6012 33.0288 18.8742 29.1891H4.3199Z" fill="#D0A144"/>
<path d="M11.5967 14.961C11.0015 14.961 10.4196 14.7875 9.92474 14.4625C9.42983 14.1374 9.0441 13.6755 8.81635 13.135C8.58859 12.5945 8.52903 11.9998 8.6452 11.426C8.76137 10.8523 9.04805 10.3253 9.46898 9.91167C9.88992 9.49805 10.4262 9.21641 11.01 9.10235C11.5938 8.9883 12.1989 9.04696 12.7488 9.27091C13.2987 9.49486 13.7687 9.87405 14.0993 10.3605C14.4299 10.847 14.6063 11.4189 14.6062 12.0039C14.6052 12.788 14.2878 13.5396 13.7236 14.094C13.1594 14.6484 12.3945 14.9602 11.5967 14.961V14.961ZM11.5967 10.2495C11.2437 10.2495 10.8986 10.3524 10.605 10.5452C10.3115 10.7379 10.0827 11.0119 9.94754 11.3325C9.81244 11.6531 9.77708 12.0058 9.84596 12.3461C9.91484 12.6865 10.0849 12.9991 10.3345 13.2444C10.5841 13.4898 10.9022 13.6569 11.2485 13.7246C11.5948 13.7923 11.9537 13.7575 12.2799 13.6247C12.606 13.4919 12.8848 13.2671 13.081 12.9786C13.2771 12.6901 13.3818 12.3509 13.3818 12.0039C13.3813 11.5387 13.1931 11.0928 12.8584 10.7639C12.5238 10.435 12.07 10.25 11.5967 10.2495V10.2495Z" fill="#D0A144"/>
</g>
<defs>
<clipPath id="clip0_1_155">
<rect width="43" height="36" fill="white" transform="translate(3 6)"/>
</clipPath>
</defs>
</svg>
