<svg width="44" height="44" viewBox="0 0 44 44" fill="none" xmlns="http://www.w3.org/2000/svg">
<g clip-path="url(#clip0_1_44)">
<path d="M10.1214 14.9828C9.78625 14.6477 9.24141 14.6477 8.90634 14.9828C8.57032 15.3188 8.57032 15.8628 8.90634 16.198C9.2415 16.534 9.78634 16.534 10.1214 16.198C10.4573 15.8628 10.4573 15.3188 10.1214 14.9828Z" fill="#295C7A"/>
<path d="M21.7593 38.4757C22.1382 37.9624 22.343 37.3441 22.343 36.694C22.343 35.0356 20.9938 33.6863 19.3353 33.6863H4.72639C3.92262 33.6863 3.16731 33.9991 2.59952 34.5671C2.03148 35.1349 1.71866 35.8902 1.71866 36.694C1.71866 37.3599 1.9366 37.9758 2.30433 38.4746C0.935945 39.1941 0 40.6293 0 42.2797V43.1391C0 43.6137 0.384828 43.9984 0.859375 43.9984H23.2023C23.6768 43.9984 24.0616 43.6137 24.0616 43.1391V42.2797C24.0616 40.63 23.1266 39.1955 21.7593 38.4757ZM3.81477 35.7822C4.05805 35.5388 4.38187 35.4049 4.72639 35.4049H19.3353C20.046 35.4049 20.6242 35.9831 20.6242 36.6938C20.6242 37.0384 20.4902 37.3622 20.2468 37.6055C20.0035 37.8489 19.6797 37.9829 19.3352 37.9829H4.72639C4.0156 37.9829 3.43741 37.4046 3.43741 36.6939C3.43741 36.3494 3.57139 36.0256 3.81477 35.7822ZM1.71866 42.2797C1.71866 40.8582 2.87521 39.7016 4.2967 39.7016H4.72639H19.3353H19.7649C21.1864 39.7016 22.343 40.8582 22.343 42.2797H1.71866Z" fill="#295C7A"/>
<path d="M43.2002 36.1044C42.9083 35.6522 42.5601 35.2522 42.1651 34.9157L38.1496 31.4135C38.1183 31.3664 38.0821 31.3217 38.0406 31.2802C37.9708 31.2105 37.8917 31.1561 37.8077 31.1153L35.3793 28.9974L24.1396 19.1927C24.5997 18.7117 24.853 18.0827 24.853 17.4139C24.853 16.7248 24.5848 16.0773 24.0973 15.5899C23.8847 15.3775 23.643 15.2105 23.3848 15.0883L24.4246 14.0484C24.7153 14.1257 25.0139 14.1652 25.3128 14.1652C26.1929 14.1651 27.0731 13.8301 27.743 13.1602C28.3925 12.5107 28.7502 11.6475 28.7502 10.7294C28.7502 9.81135 28.3925 8.94811 27.7431 8.29868L20.4515 1.00722C19.8021 0.357794 18.9387 0.00012207 18.0204 0.00012207C17.1025 0.00012207 16.2394 0.357794 15.5901 1.00722C14.6926 1.90475 14.3971 3.17912 14.7018 4.3257L4.32704 14.7004C4.04035 14.6242 3.74206 14.584 3.43732 14.584C2.51882 14.584 1.65593 14.9414 1.00701 15.5902C-0.33327 16.9305 -0.33327 19.1113 1.00701 20.4517L8.29855 27.7433C8.96878 28.4135 9.84903 28.7485 10.7293 28.7485C11.6096 28.7485 12.4899 28.4135 13.1601 27.7433C14.0577 26.8457 14.3531 25.5714 14.0484 24.4248L15.0861 23.3871C15.2108 23.6475 15.38 23.8877 15.5902 24.0979C16.0771 24.5848 16.7245 24.853 17.4133 24.853C18.0815 24.853 18.7102 24.6001 19.1919 24.1405L31.1635 37.8951C31.1965 37.9467 31.235 37.9958 31.28 38.0408C31.2954 38.0562 31.3118 38.0702 31.328 38.0841L34.8953 42.1828C34.984 42.2875 35.0788 42.3904 35.1772 42.4888C36.157 43.4683 37.4511 43.9998 38.8098 43.9998C39.0493 43.9998 39.2911 43.9833 39.5331 43.9498C41.1513 43.7258 42.5497 42.7578 43.3697 41.2936C44.268 39.6889 44.2012 37.6516 43.2002 36.1044ZM16.8055 2.22255C17.1303 1.89779 17.5618 1.71887 18.0205 1.71887C18.4797 1.71887 18.9116 1.89779 19.2362 2.22255L26.5279 9.51409C26.8526 9.83885 27.0315 10.2705 27.0315 10.7295C27.0315 11.1885 26.8526 11.6202 26.5278 11.9449C25.8579 12.615 24.7677 12.615 24.0978 11.9449L16.8059 4.65304C16.8058 4.65286 16.8057 4.65278 16.8055 4.65261C16.1354 3.98264 16.1354 2.89252 16.8055 2.22255ZM11.9448 26.528C11.2747 27.1981 10.184 27.1982 9.51388 26.528L2.22234 19.2365C1.55211 18.5662 1.55211 17.4759 2.22234 16.8055C2.5465 16.4813 2.97807 16.3027 3.43732 16.3027C3.89649 16.3027 4.32781 16.4812 4.65188 16.8052L11.9447 24.098C12.6148 24.7679 12.6148 25.8581 11.9448 26.528ZM15.5629 20.4797L13.16 22.8827L5.86772 15.5904L15.5901 5.86785L22.8823 13.1602L20.475 15.5675C20.4672 15.5749 20.4596 15.5821 20.4513 15.5903L15.5926 20.4491C15.5825 20.459 15.5728 20.4693 15.5629 20.4797ZM18.6314 22.2725C18.6297 22.2742 18.6281 22.2758 18.6263 22.2775L18.0212 22.8827C17.8588 23.0449 17.6431 23.1343 17.4133 23.1343C17.1835 23.1343 16.9677 23.0449 16.8054 22.8826C16.6429 22.7202 16.5534 22.5041 16.5534 22.2743C16.5534 22.0493 16.6393 21.8376 16.7951 21.6779L21.6764 16.7966C22.011 16.4712 22.5519 16.4753 22.8825 16.8055C23.0449 16.968 23.1344 17.184 23.1344 17.4139C23.1344 17.6436 23.0452 17.8591 22.8824 18.0214L22.2808 18.623C22.2766 18.6271 22.2725 18.6312 22.2685 18.6353L18.6314 22.2725ZM20.411 22.9234L22.9226 20.4118L33.5567 29.6875L29.6763 33.568L20.411 22.9234ZM30.8073 34.8675L34.8549 30.8199L36.1531 31.9523L31.9383 36.1672L30.8073 34.8675ZM41.8702 40.454C41.3156 41.4443 40.3779 42.0978 39.2976 42.2473C38.2198 42.3965 37.1607 42.0415 36.3923 41.2734C36.3262 41.2074 36.263 41.1386 36.204 41.0688C36.2013 41.0655 36.1985 41.0623 36.1957 41.0591L33.0693 37.4667L37.4513 33.0846L41.0392 36.2142C41.0419 36.2166 41.0446 36.2189 41.0474 36.2213C41.316 36.4497 41.5543 36.7239 41.7565 37.0372C42.4064 38.0414 42.4519 39.4147 41.8702 40.454Z" fill="#295C7A"/>
<path d="M16.1979 8.90623C15.8622 8.57064 15.3182 8.57064 14.9825 8.90623L11.3364 12.5524C11.0008 12.888 11.0008 13.4321 11.3364 13.7676C11.5042 13.9355 11.7241 14.0193 11.944 14.0193C12.164 14.0193 12.3839 13.9354 12.5517 13.7676L16.1979 10.1215C16.5334 9.78597 16.5334 9.2419 16.1979 8.90623Z" fill="#295C7A"/>
</g>
<defs>
<clipPath id="clip0_1_44">
<rect width="44" height="44" fill="white"/>
</clipPath>
</defs>
</svg>
