<svg width="49" height="48" viewBox="0 0 49 48" fill="none" xmlns="http://www.w3.org/2000/svg">
<g clip-path="url(#clip0_1_127)">
<path d="M24.3633 23.05C28.0533 23.05 30.9233 20.0643 30.9233 16.4C30.9233 12.7357 27.9167 9.88574 24.2267 9.88574C20.5367 9.88574 17.6667 12.8715 17.6667 16.4C17.6667 20.0643 20.6733 23.05 24.3633 23.05ZM24.2267 12.6C24.3633 12.6 24.3633 12.6 24.2267 12.6C26.4133 12.6 28.19 14.3643 28.19 16.5357C28.19 18.7072 26.4133 20.3357 24.2267 20.3357C22.04 20.3357 20.4 18.5715 20.4 16.5357C20.4 14.3643 22.1767 12.6 24.2267 12.6V12.6Z" fill="#D0A144"/>
<path d="M44.59 22.2357C41.9933 19.9286 38.5767 18.7071 35.0233 18.8429H33.93C33.6567 19.9286 33.2467 20.8786 32.7 21.6929C33.52 21.5571 34.2033 21.5571 35.0233 21.5571C37.62 21.4214 40.2167 22.2357 42.2667 23.7286V33.5H45V22.6429L44.59 22.2357Z" fill="#D0A144"/>
<path d="M31.88 10.1572C32.5633 8.52859 34.4767 7.71431 36.2533 8.39288C37.8933 9.07145 38.7133 10.9715 38.03 12.7357C37.4833 13.9572 36.2533 14.7715 35.0233 14.7715C34.75 14.7715 34.34 14.7715 34.0667 14.6357C34.2033 15.3143 34.2033 15.9929 34.2033 16.5357V17.35C34.4767 17.35 34.75 17.4857 35.0233 17.4857C38.44 17.4857 41.1733 14.7715 41.1733 11.5143C41.1733 8.12145 38.44 5.40717 35.16 5.40717C32.9733 5.40717 31.06 6.49288 29.9667 8.39288C30.65 8.80002 31.3333 9.34288 31.88 10.1572V10.1572Z" fill="#D0A144"/>
<path d="M16.3 21.8286C15.7533 21.0143 15.3433 20.0643 15.07 18.9786H13.9767C10.4233 18.8428 7.00667 20.0643 4.41 22.2357L4 22.6428V33.5H6.73333V23.7286C8.92 22.2357 11.38 21.4214 13.9767 21.5571C14.7967 21.5571 15.6167 21.6928 16.3 21.8286Z" fill="#D0A144"/>
<path d="M13.9767 17.3499C14.25 17.3499 14.5233 17.3499 14.7967 17.2142V16.3999C14.7967 15.7214 14.7967 15.0428 14.9333 14.4999C14.66 14.6357 14.25 14.6357 13.9767 14.6357C12.2 14.6357 10.6967 13.1428 10.6967 11.3785C10.6967 9.61422 12.2 8.12137 13.9767 8.12137C15.3433 8.12137 16.5733 8.93565 17.12 10.1571C17.6667 9.47851 18.4867 8.79994 19.17 8.25708C17.3933 5.40708 13.7033 4.45708 10.8333 6.22137C7.96334 7.98565 7.00667 11.6499 8.78334 14.4999C9.87667 16.2642 11.79 17.3499 13.9767 17.3499V17.3499Z" fill="#D0A144"/>
<path d="M35.57 30.3786L35.2967 29.9714C32.5633 26.9857 28.7367 25.2214 24.6367 25.3572C20.5367 25.2214 16.5733 26.9857 13.84 29.9714L13.5667 30.3786V40.6929C13.5667 41.9143 14.5233 43 15.89 43H33.3833C34.6133 43 35.7067 41.9143 35.7067 40.6929V30.3786H35.57ZM32.8367 40.2857H16.3V31.3286C18.4867 29.1572 21.4933 28.0714 24.6367 28.0714C27.6433 27.9357 30.65 29.1572 32.8367 31.3286V40.2857Z" fill="#D0A144"/>
</g>
<defs>
<clipPath id="clip0_1_127">
<rect width="41" height="38" fill="white" transform="translate(4 5)"/>
</clipPath>
</defs>
</svg>
